<?xml version="1.0" encoding="utf-8"?>
<!-- Generator: Adobe Illustrator 16.0.0, SVG Export Plug-In . SVG Version: 6.00 Build 0)  -->
<!DOCTYPE svg PUBLIC "-//W3C//DTD SVG 1.1//EN" "http://www.w3.org/Graphics/SVG/1.1/DTD/svg11.dtd">
<svg version="1.1" id="Layer_1" xmlns="http://www.w3.org/2000/svg" xmlns:xlink="http://www.w3.org/1999/xlink" x="0px" y="0px"
	 width="400px" height="400px" viewBox="0 0 400 400" enable-background="new 0 0 400 400" xml:space="preserve">
<g>
	<circle fill="#BEE3F6" cx="187.395" cy="208.564" r="172.035"/>
	<path fill="#FFD8C2" d="M362.729,242.936c0,0-17.768-10.297-9.993-26.74c0,0,4.424-5.428,5.588,1.248c0,0,0.401,7.979,4.91,4.939
		c0,0,5.98-4.979,3.265-11.727c0,0-1.499-6.696-5.61-3.344l-2.539,4.387c0,0-2.143,5.822-4.46-0.422c0,0,0.251-5.355,3.862-8.635
		c0,0,8.484-10.241,12.734,3.076c0,0,1.046-10.08-5.121-18.682c0,0-0.229-8.984,6.072-3.514c0,0,4.239,4.529,5.645,21.333
		c0,0,3.473-9.943,1.974-14.587c0,0,2.034-5.564,5.233-0.411c0,0,2.148,9.69-1.775,17.473c0,0,5.787-5.51,5.396-10.469
		c0,0,5.457-3.269,4.632,2.397c0,0-0.258,8.145-6.384,12.122c0,0,0.354,17.56-5.334,32.101L362.729,242.936z"/>
	<path fill="#F4F4F4" d="M265.633,254.641c0,0,3.366,2.316,7.818,12.858C289.516,305.545,330.021,383,356.405,237h27.188
		c0,0-11.325,90.582-56.097,113.639c-20.271,10.439-46.293,6.26-71.035-59.461L265.633,254.641z"/>
	<g>
		<g>
			<defs>
				<circle id="SVGID_1_" cx="187.395" cy="208.564" r="172.035"/>
			</defs>
			<clipPath id="SVGID_2_">
				<use xlink:href="#SVGID_1_"  overflow="visible"/>
			</clipPath>
			<g clip-path="url(#SVGID_2_)">
				<path fill="#FFD8C2" d="M211.645,192.33c-0.277,10.816-2.707,30.654,2.61,35.338c5.318,4.686,10.179,8.979,10.179,8.979
					c-13.951,25.508-28.734,30.48-61.498,0.979c7.483-1.395,8.207-11.707,8.309-16.13c0.102-4.427,0.729-28.381,0.729-28.381
					L211.645,192.33z"/>
				<g>
					<path opacity="0.4" fill="#A6836F" enable-background="new    " d="M211.645,192.33l-39.671,0.783
						c0,0-0.38,14.485-0.594,23.009c13.936,3.542,27.777,3.812,39.753,2.338C210.363,210.419,211.461,199.437,211.645,192.33z"/>
				</g>
				<path fill="#FFD8C2" d="M233.268,118.665c6.354-14.293,19.283-8.619,18.146,9.072c-1.135,17.693-12.02,31.757-22.91,9.302
					C232.134,122.973,233.268,118.665,233.268,118.665z"/>
				<path fill="#97D1DE" d="M158.578,230.291c-4.888,3.421-15.519,7.333-15.519,7.333l-6.188,204.453
					c0,0,82.758,5.862,114.688-3.583c16.142-4.778-12.705-193.54-13.194-195.008c-0.488-1.465-13.563-11.854-13.563-11.854
					s-26.839,13.969-34.496,14.622C182.647,246.908,158.578,230.291,158.578,230.291z"/>
				<path fill="#F4F4F4" d="M229.566,234.688c-5.053,49.201,14.174,297.643,20.037,396.856c31.278,2.932,52.783-6.843,55.717-10.751
					c4.397-36.169-28.998-167.962-28.998-209.018c0-41.053-6.191-142.387-7.17-151.672
					C268.177,250.816,229.566,234.688,229.566,234.688z"/>
				<path fill="#76AB96" d="M188.635,267.926c-1.955,16.615-11.853,142.71-10.875,145.642c0.978,2.933,18.083,22.481,18.572,21.018
					c0.489-1.468,14.663-17.595,14.663-21.018c0-3.418-15.152-145.642-15.152-145.642H188.635L188.635,267.926z"/>
				<path fill="#669482" d="M178.003,258.148c2.933,3.912,7.088,13.932,9.288,14.908c2.198,0.976,8.063,0.976,9.285,0
					c1.223-0.978,8.798-12.953,8.798-12.953l-13.685-12.707C191.689,247.396,179.47,256.686,178.003,258.148z"/>
				<path fill="#C0EFFA" d="M171.041,222.227c-3.911,2.279-15.11,7.9-15.11,9.205c0,1.303,12.055,33.887,18.897,39.098
					c9.939-11.729,15.478-20.688,15.478-20.688l17.92,16.779c16.777-15.638,18.326-32.785,18.164-33.763
					c-0.166-0.978-12.342-8.186-14.582-10.711c-7.168,12.219-21.502,24.109-21.502,24.109S172.833,229.068,171.041,222.227z"/>
				<path fill="#D69B40" d="M239.313,68.003c4.765,13.382,7.484,25.859,5.896,34.706c-1.586,8.847-2.04,28.126-2.721,29.716
					c-0.682,1.587-4.537,2.04-4.537,2.04s2.724-47.408-2.723-67.37"/>
				<path fill="#FFD8C2" d="M234.773,64.601c8.623,24.042,1.645,53.493,5.9,121.584c0.678,10.887-52.132,33.092-94.117,6.111
					c-3.879-5.433-14.767-111.365-6.146-124.068C149.032,55.527,208.918,35.112,234.773,64.601z"/>
				<path fill="#FFD8C2" d="M137.009,120.401c-6.352-14.29-19.28-8.62-18.146,9.072c1.134,17.695,18.146,34.936,23.136,15.651
					C138.371,131.063,137.009,120.401,137.009,120.401z"/>
				<path fill="#D69B40" d="M151.148,109.212C146.914,95,165.666,76.544,174.74,90.76c3.326,7.867,3.933,11.194,0.604,10.286
					C172.018,100.138,164.455,98.927,151.148,109.212z"/>
				<path fill="#D69B40" d="M234.662,107.141c3.543-14.401-16.078-31.929-24.455-17.291c-2.943,8.015-3.387,11.369-0.105,10.299
					C213.381,99.083,220.874,97.512,234.662,107.141z"/>
				<g>
					<path fill="#2B1509" d="M176.252,124.79c0,4.927-2.574,8.919-5.749,8.919c-3.173,0-5.746-3.992-5.746-8.919
						c0-4.929,2.573-8.923,5.746-8.923C173.679,115.867,176.252,119.86,176.252,124.79z"/>
				</g>
				<g>
					<path fill="#2B1509" d="M227.197,124.79c0,4.927-2.573,8.919-5.748,8.919c-3.172,0-5.746-3.992-5.746-8.919
						c0-4.929,2.574-8.923,5.746-8.923C224.624,115.867,227.197,119.86,227.197,124.79z"/>
				</g>
				<g>
					<g>
						<g>
							<path fill="#A6836F" d="M192.357,156.694c-0.293-0.238,1.188-2.429,3.456-5.953c1.085-1.762,2.474-3.916,3.304-6.307
								c0.207-0.587,0.302-1.191,0.276-1.63c-0.021-0.093-0.009-0.218-0.052-0.264c-0.014-0.032-0.023-0.065-0.029-0.1
								c-0.018-0.021-0.037-0.035-0.049-0.057c-0.006-0.055-0.082-0.059-0.102-0.109c-0.079-0.021-0.106-0.076-0.218-0.101
								c-0.375-0.14-1.035-0.175-1.714-0.105c-0.687,0.065-1.42,0.211-2.169,0.393c-0.38,0.097-0.759,0.193-1.135,0.289
								c-0.641,0.193-1.267,0.272-1.745,0.192c-0.358-0.369-0.91-0.599-0.976-1.329c-0.117-0.653-0.093-1.587-0.1-1.806
								c0.005-0.757,0.034-1.483,0.069-2.197c0.071-1.424,0.174-2.782,0.288-4.071c0.228-2.578,0.501-4.875,0.778-6.795
								c0.551-3.839,1.141-6.159,1.476-6.116c0.334,0.042,0.357,2.407,0.267,6.263c-0.061,1.925-0.134,4.223-0.215,6.789
								c-0.036,1.276-0.074,2.62-0.113,4.016c-0.013,0.694-0.022,1.401-0.013,2.103c0.007,0.501,0.009,0.331,0.012,0.364
								c0.003,0.001,0.005,0.002,0.008-0.001l0.003-0.004c0.263-0.067,0.528-0.134,0.793-0.202c0.821-0.198,1.66-0.365,2.543-0.44
								c0.881-0.061,1.818-0.088,2.877,0.313c0.257,0.084,0.535,0.272,0.783,0.432c0.24,0.221,0.5,0.423,0.66,0.712
								c0.088,0.137,0.177,0.277,0.246,0.418l0.146,0.429c0.108,0.298,0.104,0.551,0.136,0.82c0.023,1.025-0.215,1.85-0.49,2.574
								c-1.161,2.864-2.747,4.873-4.062,6.584C194.588,155.137,192.615,156.906,192.357,156.694z"/>
						</g>
					</g>
				</g>
				<path fill="#CECECE" d="M228.428,232.245c-0.979,16.618,2.93,179.283,9.447,218.71c4.563-54.736,7.82-132.367,11.404-148.984
					c-3.26-4.885-9.773-11.728-9.773-11.728l8.469-2.281c1.955-9.776,2.281-44.313,1.955-45.616
					C249.604,241.044,228.428,232.245,228.428,232.245z"/>
				<path fill="#F4F4F4" d="M152.834,233.225c4.4,50.99-8.309,295.686-14.173,394.898c-31.28,2.934-58.649-4.885-61.581-8.794
					c-4.399-36.172,38.61-169.756,38.61-210.81s-3.422-140.595-2.444-149.882C114.224,249.352,152.834,233.225,152.834,233.225z"/>
				<path fill="#CECECE" d="M153.974,230.779c0.978,16.617,0.246,180.507-6.272,219.932c-4.561-54.738-10.996-133.589-14.58-150.205
					c3.258-4.887,9.774-11.73,9.774-11.73l-8.471-2.278c-1.954-9.774-2.28-44.313-1.954-45.618
					C132.796,239.579,153.974,230.779,153.974,230.779z"/>
				<g>
					<g>
						<g>
							<path fill="#9FAFB3" d="M120.416,279.165c0.283-0.026,1.087,2.782,2.176,7.425c1.063,4.646,2.461,11.044,3.579,18.284
								c0.06,0.464,0.119,0.926,0.178,1.385c0.047,0.495,0.089,0.985,0.089,1.415c0.021,0.891,0.042,1.768,0.062,2.628
								c0.046,1.724,0,3.38-0.009,4.96c0.004,3.156-0.24,6.008-0.386,8.393c-0.059,1.191-0.228,2.273-0.374,3.22
								c-0.145,0.946-0.284,1.757-0.414,2.416c-0.261,1.319-0.488,2.03-0.664,2.007c-0.177-0.023-0.286-0.777-0.333-2.109
								c-0.024-0.668-0.032-1.479-0.025-2.414c0.007-0.938,0.047-1.998-0.01-3.187c-0.088-2.372-0.033-5.18-0.167-8.312
								c-0.057-1.563-0.061-3.209-0.141-4.904c-0.032-0.85-0.065-1.712-0.099-2.588c-0.006-0.455-0.048-0.85-0.087-1.247
								c-0.056-0.431-0.113-0.861-0.17-1.298c-1.097-7.103-2.218-13.604-2.82-18.321
								C120.171,282.204,119.99,279.208,120.416,279.165z"/>
						</g>
					</g>
				</g>
				<g>
					<g>
						<g>
							<path fill="#A6836F" d="M134.212,142.481c-0.039,0.169-0.505,0.217-1.358,0.096c-0.816-0.194-2.074-0.606-3.233-1.794
								c-0.6-0.566-1.076-1.378-1.425-2.315c-0.33-0.95-0.415-2.083-0.145-3.231c0.267-1.144,0.965-2.3,2.024-3.087
								c0.205-0.141,0.413-0.282,0.621-0.425c0.006-0.007,0.018-0.014,0.017-0.017c-0.003-0.005-0.003,0.002-0.006-0.009
								l-0.045-0.283c-0.016-0.121-0.044-0.241-0.068-0.361c-0.381-1.92-1.155-3.719-2.155-4.914c-0.48-0.605-1.083-0.96-1.335-0.97
								c-0.123-0.015-0.231,0.004-0.4,0.129c-0.158,0.141-0.327,0.354-0.458,0.609c-0.531,1.047-0.727,2.209-0.904,2.957
								c-0.173,0.767-0.321,1.212-0.504,1.217c-0.172,0.005-0.365-0.428-0.499-1.248c-0.11-0.823-0.258-2.017,0.227-3.631
								c0.133-0.403,0.338-0.842,0.7-1.278c0.365-0.43,1.003-0.837,1.72-0.889c0.711-0.06,1.346,0.165,1.859,0.446
								c0.521,0.288,0.957,0.649,1.339,1.046c1.523,1.598,2.464,3.71,2.938,6.021c0.029,0.145,0.062,0.289,0.081,0.434l0.074,0.512
								c0.071,0.516,0.11,1.05,0.166,1.567l0.019,0.194c-0.005,0.058-0.103,0.061-0.15,0.093l-0.353,0.154l-0.7,0.305l-0.346,0.15
								l-0.114,0.078l-0.231,0.148c-0.597,0.413-1.011,1.009-1.222,1.67c-0.447,1.346-0.017,2.792,0.674,3.755
								c0.684,1.002,1.586,1.592,2.203,2.031C133.873,142.02,134.254,142.305,134.212,142.481z"/>
						</g>
					</g>
				</g>
				<g>
					<g>
						<path fill="#F4F4F4" d="M114.291,463.926c-41.158-99.043,0.963-165.393,0.963-165.393c0.404,1.246,3.233-4.684,3.538-2.598
							c-0.243-5.056-1.08-9.838-0.899-14.901c0.348-9.765,3.499-23.032,5.304-32.623c-17.468,9.766-22.324,23.049-22.324,23.049
							c-62.487,99.923-11.696,207.167-11.696,207.167L114.291,463.926z"/>
					</g>
				</g>
				<g>
					<g>
						<g>
							<path fill="#9FAFB3" d="M265.525,277.268c0.426-0.023,0.719,2.961,0.845,7.713c0.149,4.754,0.071,11.352,0.112,18.537
								c0.014,0.438,0.024,0.875,0.039,1.309c0.022,0.398,0.045,0.795,0.11,1.244c0.104,0.871,0.209,1.729,0.312,2.57
								c0.19,1.688,0.447,3.313,0.639,4.865c0.363,3.113,0.861,5.878,1.148,8.232c0.133,1.184,0.338,2.224,0.494,3.146
								c0.153,0.924,0.274,1.727,0.356,2.389c0.163,1.322,0.175,2.084,0.005,2.137c-0.171,0.051-0.508-0.615-0.975-1.876
								c-0.233-0.632-0.498-1.409-0.791-2.32s-0.631-1.954-0.879-3.12c-0.521-2.33-1.213-5.107-1.707-8.226
								c-0.26-1.56-0.566-3.187-0.795-4.896c-0.116-0.854-0.234-1.724-0.354-2.604c-0.067-0.423-0.104-0.915-0.136-1.411
								c-0.016-0.462-0.028-0.928-0.045-1.396c-0.04-7.324,0.326-13.863,0.644-18.619
								C264.889,280.186,265.24,277.285,265.525,277.268z"/>
						</g>
					</g>
				</g>
				<path fill="#FFFFFF" d="M209.975,171.888c0,0-29.898,6.836-36.733-9.395c0,0-3.747,27.983,32.133,24.029"/>
				<g>
					<g>
						<g>
							<path fill="#A6836F" d="M175.613,160.603c0.218,0.69-1.544,1.841-3.813,2.861c-0.565,0.257-1.146,0.434-1.641,0.628
								c-0.494,0.196-0.958,0.342-1.372,0.434c-0.826,0.184-1.451,0.157-1.643-0.142c-0.192-0.3,0.096-0.824,0.747-1.445
								c0.325-0.31,0.74-0.643,1.222-0.979c0.483-0.334,1.052-0.584,1.654-0.858C173.183,160.02,175.406,159.935,175.613,160.603z"
								/>
						</g>
					</g>
				</g>
			</g>
		</g>
	</g>
	<path fill="#D69B40" d="M138.143,61.425c-2.948-18.598,33.799-36.069,60.564-35.388c26.768,0.68,32.591-7.56,32.591-7.56
		c6.806,10.436,37.956,41.585,6.429,53.381c-9.756-9.98-39.923-21.094-56.028-13.382c-16.106,7.71-35.237,6.351-40.226,13.839
		c9.828,35.384,0.301,38.56,1.888,44.458c1.588,5.896,3.177,19.051,2.271,20.641c-0.909,1.585-5.445,0.907-5.445,0.907
		s-2.269-15.423-5.671-20.869C131.111,112.01,108.807,64.148,138.143,61.425z"/>
</g>
</svg>
